<svg width="386" height="200" viewBox="0 0 386 200" fill="none" xmlns="http://www.w3.org/2000/svg">
<path d="M45.4118 11.7656C20.3308 11.7656 0 22.3538 0 35.2949V70.5889V94.1182V129.412C0 142.353 20.3315 152.941 45.4118 152.941V200L156.103 152.941H204.353H340.588C365.678 152.941 386 142.353 386 129.412V94.1182V70.5889V35.2949C386 22.3538 365.678 11.7656 340.588 11.7656H204.353H181.647H45.4118Z" fill="#BDC3C7"/>
<path d="M45.4118 0C20.3308 0 0 10.5882 0 23.5293V58.8233V82.3526V117.647C0 130.588 20.3315 141.176 45.4118 141.176V188.234L156.103 141.176H204.353H340.588C365.678 141.176 386 130.588 386 117.647V82.3526V58.8233V23.5293C386 10.5882 365.678 0 340.588 0H204.353H181.647H45.4118Z" fill="#ECF0F1"/>
<path d="M43.6928 51.791V35.231H55.0208V38.351H47.1488V41.711H54.3008V44.831H47.1488V48.671H55.0208V51.791H43.6928ZM57.8412 47.903V39.119H61.1532V48.143C61.1532 48.655 61.4092 48.911 61.9212 48.911H65.4252V39.119H68.7372V51.791H61.7292C59.1372 51.791 57.8412 50.495 57.8412 47.903ZM77.5208 50.711V48.911H83.0408C83.5848 48.911 83.8568 48.607 83.8568 47.999C83.8568 47.375 83.6328 47.023 83.1848 46.943L80.5928 46.511C78.5448 46.159 77.5208 44.975 77.5208 42.959C77.5208 40.399 78.8168 39.119 81.4088 39.119H85.1288L86.5688 40.199V41.999H81.6008C81.0568 41.999 80.7848 42.303 80.7848 42.911C80.7848 43.551 81.0328 43.911 81.5288 43.991L84.0968 44.423C86.1288 44.759 87.1448 45.927 87.1448 47.927C87.1448 50.503 85.8408 51.791 83.2328 51.791H78.9608L77.5208 50.711ZM89.9483 47.903V43.007C89.9483 40.415 91.2443 39.119 93.8363 39.119H97.1963C99.7883 39.119 101.084 40.415 101.084 43.007V47.903C101.084 50.495 99.7883 51.791 97.1963 51.791H93.8363C91.2443 51.791 89.9483 50.495 89.9483 47.903ZM93.2603 48.143C93.2603 48.655 93.5163 48.911 94.0283 48.911H97.0043C97.5163 48.911 97.7723 48.655 97.7723 48.143V42.767C97.7723 42.255 97.5163 41.999 97.0043 41.999H94.0283C93.5163 41.999 93.2603 42.255 93.2603 42.767V48.143ZM104.247 47.903V39.119H107.559V48.143C107.559 48.655 107.815 48.911 108.327 48.911H111.831V39.119H115.143V51.791H108.135C105.543 51.791 104.247 50.495 104.247 47.903ZM127.575 51.791C124.983 51.791 123.687 50.519 123.687 47.975C123.687 45.431 124.983 44.159 127.575 44.159H130.887V42.767C130.887 42.255 130.631 41.999 130.119 41.999H125.031V40.199L126.471 39.119H130.311C132.903 39.119 134.199 40.415 134.199 43.007V51.791H127.575ZM126.999 48.143C126.999 48.655 127.255 48.911 127.767 48.911H130.887V46.703H127.767C127.255 46.703 126.999 46.959 126.999 47.471V48.143ZM143.32 56.591V39.119H150.328C152.92 39.119 154.216 40.415 154.216 43.007V47.903C154.216 50.495 152.92 51.791 150.328 51.791H146.632V56.591H143.32ZM146.632 48.911H150.136C150.648 48.911 150.904 48.655 150.904 48.143V42.767C150.904 42.255 150.648 41.999 150.136 41.999H146.632V48.911ZM157.284 47.903V43.007C157.284 40.415 158.58 39.119 161.172 39.119H164.292C166.884 39.119 168.18 40.415 168.18 43.007V46.679H160.596V48.143C160.596 48.655 160.852 48.911 161.364 48.911H167.7V50.711L166.26 51.791H161.172C158.58 51.791 157.284 50.495 157.284 47.903ZM160.596 44.135H164.868V42.767C164.868 42.255 164.612 41.999 164.1 41.999H161.364C160.852 41.999 160.596 42.255 160.596 42.767V44.135ZM171.349 51.791V40.751C171.941 39.663 173.077 39.119 174.757 39.119H177.349L178.789 40.199V41.999H175.645C175.165 41.999 174.837 42.119 174.661 42.359V51.791H171.349ZM180.716 50.711V48.911H186.236C186.78 48.911 187.052 48.607 187.052 47.999C187.052 47.375 186.828 47.023 186.38 46.943L183.788 46.511C181.74 46.159 180.716 44.975 180.716 42.959C180.716 40.399 182.012 39.119 184.604 39.119H188.324L189.764 40.199V41.999H184.796C184.252 41.999 183.98 42.303 183.98 42.911C183.98 43.551 184.228 43.911 184.724 43.991L187.292 44.423C189.324 44.759 190.34 45.927 190.34 47.927C190.34 50.503 189.036 51.791 186.428 51.791H182.156L180.716 50.711ZM193.144 47.903V43.007C193.144 40.415 194.44 39.119 197.032 39.119H200.392C202.984 39.119 204.28 40.415 204.28 43.007V47.903C204.28 50.495 202.984 51.791 200.392 51.791H197.032C194.44 51.791 193.144 50.495 193.144 47.903ZM196.456 48.143C196.456 48.655 196.712 48.911 197.224 48.911H200.2C200.712 48.911 200.968 48.655 200.968 48.143V42.767C200.968 42.255 200.712 41.999 200.2 41.999H197.224C196.712 41.999 196.456 42.255 196.456 42.767V48.143ZM207.539 51.791V39.119H214.547C217.139 39.119 218.435 40.415 218.435 43.007V51.791H215.123V42.767C215.123 42.255 214.867 41.999 214.355 41.999H210.851V51.791H207.539ZM221.717 37.031V33.791H225.173V37.031H221.717ZM221.789 51.791V39.119H225.101V51.791H221.789ZM228.562 51.791V37.919C228.562 35.327 229.858 34.031 232.45 34.031H234.802L236.242 35.111V36.911H232.642C232.13 36.911 231.874 37.167 231.874 37.679V39.119H236.002V41.999H231.874V51.791H228.562ZM238.381 37.031V33.791H241.837V37.031H238.381ZM238.453 51.791V39.119H241.765V51.791H238.453ZM245.034 47.903V43.007C245.034 40.415 246.33 39.119 248.922 39.119H253.386L254.826 40.199V41.999H249.114C248.602 41.999 248.346 42.255 248.346 42.767V48.143C248.346 48.655 248.602 48.911 249.114 48.911H254.826V50.711L253.386 51.791H248.922C246.33 51.791 245.034 50.495 245.034 47.903ZM260.864 51.791C258.272 51.791 256.976 50.519 256.976 47.975C256.976 45.431 258.272 44.159 260.864 44.159H264.176V42.767C264.176 42.255 263.92 41.999 263.408 41.999H258.32V40.199L259.76 39.119H263.6C266.192 39.119 267.488 40.415 267.488 43.007V51.791H260.864ZM260.288 48.143C260.288 48.655 260.544 48.911 261.056 48.911H264.176V46.703H261.056C260.544 46.703 260.288 46.959 260.288 47.471V48.143ZM270.651 47.903V43.007C270.651 40.415 271.947 39.119 274.539 39.119H279.003L280.443 40.199V41.999H274.731C274.219 41.999 273.963 42.255 273.963 42.767V48.143C273.963 48.655 274.219 48.911 274.731 48.911H280.443V50.711L279.003 51.791H274.539C271.947 51.791 270.651 50.495 270.651 47.903ZM273.339 53.951H275.739C275.963 53.951 276.075 53.839 276.075 53.615V50.351H278.619V53.327C278.619 55.279 277.643 56.255 275.691 56.255H274.467L273.339 55.367V53.951ZM286.481 51.791C283.889 51.791 282.593 50.519 282.593 47.975C282.593 45.431 283.889 44.159 286.481 44.159H289.793V42.767C289.793 42.255 289.537 41.999 289.025 41.999H283.937V40.199L285.377 39.119H289.217C291.809 39.119 293.105 40.415 293.105 43.007V51.791H286.481ZM285.905 48.143C285.905 48.655 286.161 48.911 286.673 48.911H289.793V46.703H286.673C286.161 46.703 285.905 46.959 285.905 47.471V48.143ZM283.913 36.143L285.497 34.559C285.849 34.207 286.305 34.031 286.865 34.031C287.425 34.031 287.881 34.207 288.233 34.559L289.241 35.567C289.321 35.647 289.393 35.687 289.457 35.687C289.521 35.687 289.593 35.647 289.673 35.567L290.993 34.247L292.409 35.663L290.825 37.247C290.473 37.599 290.017 37.775 289.457 37.775C288.897 37.775 288.441 37.599 288.089 37.247L287.081 36.239C287.001 36.159 286.929 36.119 286.865 36.119C286.801 36.119 286.729 36.159 286.649 36.239L285.329 37.559L283.913 36.143ZM296.269 47.903V43.007C296.269 40.415 297.565 39.119 300.157 39.119H303.517C306.109 39.119 307.405 40.415 307.405 43.007V47.903C307.405 50.495 306.109 51.791 303.517 51.791H300.157C297.565 51.791 296.269 50.495 296.269 47.903ZM299.581 48.143C299.581 48.655 299.837 48.911 300.349 48.911H303.325C303.837 48.911 304.093 48.655 304.093 48.143V42.767C304.093 42.255 303.837 41.999 303.325 41.999H300.349C299.837 41.999 299.581 42.255 299.581 42.767V48.143ZM316.237 47.903V43.007C316.237 40.415 317.533 39.119 320.125 39.119H323.821V34.031H327.133V51.791H320.125C317.533 51.791 316.237 50.495 316.237 47.903ZM319.549 48.143C319.549 48.655 319.805 48.911 320.317 48.911H323.821V41.999H320.317C319.805 41.999 319.549 42.255 319.549 42.767V48.143ZM330.394 47.903V43.007C330.394 40.415 331.69 39.119 334.282 39.119H337.642C340.234 39.119 341.53 40.415 341.53 43.007V47.903C341.53 50.495 340.234 51.791 337.642 51.791H334.282C331.69 51.791 330.394 50.495 330.394 47.903ZM333.706 48.143C333.706 48.655 333.962 48.911 334.474 48.911H337.45C337.962 48.911 338.218 48.655 338.218 48.143V42.767C338.218 42.255 337.962 41.999 337.45 41.999H334.474C333.962 41.999 333.706 42.255 333.706 42.767V48.143ZM59.8077 77.903V73.007C59.8077 70.415 61.1037 69.119 63.6957 69.119H68.1597L69.5997 70.199V71.999H63.8877C63.3757 71.999 63.1197 72.255 63.1197 72.767V78.143C63.1197 78.655 63.3757 78.911 63.8877 78.911H69.5997V80.711L68.1597 81.791H63.6957C61.1037 81.791 59.8077 80.495 59.8077 77.903ZM75.6375 81.791C73.0455 81.791 71.7495 80.519 71.7495 77.975C71.7495 75.431 73.0455 74.159 75.6375 74.159H78.9495V72.767C78.9495 72.255 78.6935 71.999 78.1815 71.999H73.0935V70.199L74.5335 69.119H78.3735C80.9655 69.119 82.2615 70.415 82.2615 73.007V81.791H75.6375ZM75.0615 78.143C75.0615 78.655 75.3175 78.911 75.8295 78.911H78.9495V76.703H75.8295C75.3175 76.703 75.0615 76.959 75.0615 77.471V78.143ZM85.4248 77.903V73.007C85.4248 70.415 86.7208 69.119 89.3128 69.119H92.6728C95.2648 69.119 96.5608 70.415 96.5608 73.007V77.903C96.5608 80.495 95.2648 81.791 92.6728 81.791H89.3128C86.7208 81.791 85.4248 80.495 85.4248 77.903ZM88.7368 78.143C88.7368 78.655 88.9928 78.911 89.5048 78.911H92.4808C92.9928 78.911 93.2488 78.655 93.2488 78.143V72.767C93.2488 72.255 92.9928 71.999 92.4808 71.999H89.5048C88.9928 71.999 88.7368 72.255 88.7368 72.767V78.143ZM99.388 80.711V78.911H104.908C105.452 78.911 105.724 78.607 105.724 77.999C105.724 77.375 105.5 77.023 105.052 76.943L102.46 76.511C100.412 76.159 99.388 74.975 99.388 72.959C99.388 70.399 100.684 69.119 103.276 69.119H106.996L108.436 70.199V71.999H103.468C102.924 71.999 102.652 72.303 102.652 72.911C102.652 73.551 102.9 73.911 103.396 73.991L105.964 74.423C107.996 74.759 109.012 75.927 109.012 77.927C109.012 80.503 107.708 81.791 105.1 81.791H100.828L99.388 80.711ZM111.839 81.791V78.359H115.415V81.791H111.839ZM123.157 65.879L123.589 65.231H126.637L130.405 78.671H130.789L134.581 65.231H137.605L138.037 65.879L133.333 81.791H127.861L123.157 65.879ZM139.284 77.903V73.007C139.284 70.415 140.58 69.119 143.172 69.119H146.532C149.124 69.119 150.42 70.415 150.42 73.007V77.903C150.42 80.495 149.124 81.791 146.532 81.791H143.172C140.58 81.791 139.284 80.495 139.284 77.903ZM142.596 78.143C142.596 78.655 142.852 78.911 143.364 78.911H146.34C146.852 78.911 147.108 78.655 147.108 78.143V72.767C147.108 72.255 146.852 71.999 146.34 71.999H143.364C142.852 71.999 142.596 72.255 142.596 72.767V78.143ZM153.487 77.903V73.007C153.487 70.415 154.783 69.119 157.375 69.119H161.839L163.279 70.199V71.999H157.567C157.055 71.999 156.799 72.255 156.799 72.767V78.143C156.799 78.655 157.055 78.911 157.567 78.911H163.279V80.711L161.839 81.791H157.375C154.783 81.791 153.487 80.495 153.487 77.903ZM165.909 77.903V73.007C165.909 70.415 167.205 69.119 169.797 69.119H172.917C175.509 69.119 176.805 70.415 176.805 73.007V76.679H169.221V78.143C169.221 78.655 169.477 78.911 169.989 78.911H176.325V80.711L174.885 81.791H169.797C167.205 81.791 165.909 80.495 165.909 77.903ZM169.221 74.135H173.493V72.767C173.493 72.255 173.237 71.999 172.725 71.999H169.989C169.477 71.999 169.221 72.255 169.221 72.767V74.135ZM167.589 66.383L171.357 62.687L175.125 66.383L173.709 67.871L171.357 65.639L169.005 67.871L167.589 66.383ZM185.644 77.903V73.007C185.644 70.415 186.94 69.119 189.532 69.119H192.652C195.244 69.119 196.54 70.415 196.54 73.007V76.679H188.956V78.143C188.956 78.655 189.212 78.911 189.724 78.911H196.06V80.711L194.62 81.791H189.532C186.94 81.791 185.644 80.495 185.644 77.903ZM188.956 74.135H193.228V72.767C193.228 72.255 192.972 71.999 192.46 71.999H189.724C189.212 71.999 188.956 72.255 188.956 72.767V74.135ZM189.052 66.455L192.364 62.687L194.164 64.391L190.612 67.967L189.052 66.455ZM208.786 81.791C206.194 81.791 204.898 80.519 204.898 77.975C204.898 75.431 206.194 74.159 208.786 74.159H212.098V72.767C212.098 72.255 211.842 71.999 211.33 71.999H206.242V70.199L207.682 69.119H211.522C214.114 69.119 215.41 70.415 215.41 73.007V81.791H208.786ZM208.21 78.143C208.21 78.655 208.466 78.911 208.978 78.911H212.098V76.703H208.978C208.466 76.703 208.21 76.959 208.21 77.471V78.143ZM218.765 86.591V69.119H225.773C228.365 69.119 229.661 70.415 229.661 73.007V77.903C229.661 80.495 228.365 81.791 225.773 81.791H222.077V86.591H218.765ZM222.077 78.911H225.581C226.093 78.911 226.349 78.655 226.349 78.143V72.767C226.349 72.255 226.093 71.999 225.581 71.999H222.077V78.911ZM232.73 77.903V73.007C232.73 70.415 234.026 69.119 236.618 69.119H239.738C242.33 69.119 243.626 70.415 243.626 73.007V76.679H236.042V78.143C236.042 78.655 236.298 78.911 236.81 78.911H243.146V80.711L241.706 81.791H236.618C234.026 81.791 232.73 80.495 232.73 77.903ZM236.042 74.135H240.314V72.767C240.314 72.255 240.058 71.999 239.546 71.999H236.81C236.298 71.999 236.042 72.255 236.042 72.767V74.135ZM246.89 81.791V69.119H253.898C256.49 69.119 257.786 70.415 257.786 73.007V81.791H254.474V72.767C254.474 72.255 254.218 71.999 253.706 71.999H250.202V81.791H246.89ZM264.356 81.791C261.764 81.791 260.468 80.519 260.468 77.975C260.468 75.431 261.764 74.159 264.356 74.159H267.668V72.767C267.668 72.255 267.412 71.999 266.9 71.999H261.812V70.199L263.252 69.119H267.092C269.684 69.119 270.98 70.415 270.98 73.007V81.791H264.356ZM263.78 78.143C263.78 78.655 264.036 78.911 264.548 78.911H267.668V76.703H264.548C264.036 76.703 263.78 76.959 263.78 77.471V78.143ZM273.904 80.711V78.911H279.424C279.968 78.911 280.24 78.607 280.24 77.999C280.24 77.375 280.016 77.023 279.568 76.943L276.976 76.511C274.928 76.159 273.904 74.975 273.904 72.959C273.904 70.399 275.2 69.119 277.792 69.119H281.512L282.952 70.199V71.999H277.984C277.44 71.999 277.168 72.303 277.168 72.911C277.168 73.551 277.416 73.911 277.912 73.991L280.48 74.423C282.512 74.759 283.528 75.927 283.528 77.927C283.528 80.503 282.224 81.791 279.616 81.791H275.344L273.904 80.711ZM292.193 77.903V69.119H295.505V78.143C295.505 78.655 295.761 78.911 296.273 78.911H299.777V69.119H303.089V81.791H296.081C293.489 81.791 292.193 80.495 292.193 77.903ZM306.539 81.791V69.119H320.987C323.579 69.119 324.875 70.415 324.875 73.007V81.791H321.563V72.767C321.563 72.255 321.307 71.999 320.795 71.999H317.363V81.791H314.051V71.999H309.851V81.791H306.539ZM149.939 97.031V93.791H153.395V97.031H149.939ZM150.011 111.791V99.119H153.323V111.791H150.011ZM156.785 111.791V99.119H163.793C166.385 99.119 167.681 100.415 167.681 103.007V111.791H164.369V102.767C164.369 102.255 164.113 101.999 163.601 101.999H160.097V111.791H156.785ZM170.939 107.903V95.231H174.251V99.119H178.379V101.999H174.251V108.143C174.251 108.655 174.507 108.911 175.019 108.911H178.619V110.711L177.179 111.791H174.827C172.235 111.791 170.939 110.495 170.939 107.903ZM181.111 111.791V100.751C181.703 99.663 182.839 99.119 184.519 99.119H187.111L188.551 100.199V101.999H185.407C184.927 101.999 184.599 102.119 184.423 102.359V111.791H181.111ZM190.814 107.903V99.119H194.126V108.143C194.126 108.655 194.382 108.911 194.894 108.911H198.398V99.119H201.71V111.791H194.702C192.11 111.791 190.814 110.495 190.814 107.903ZM204.728 110.711V108.911H210.248C210.792 108.911 211.064 108.607 211.064 107.999C211.064 107.375 210.84 107.023 210.392 106.943L207.8 106.511C205.752 106.159 204.728 104.975 204.728 102.959C204.728 100.399 206.024 99.119 208.616 99.119H212.336L213.776 100.199V101.999H208.808C208.264 101.999 207.992 102.303 207.992 102.911C207.992 103.551 208.24 103.911 208.736 103.991L211.304 104.423C213.336 104.759 214.352 105.927 214.352 107.927C214.352 110.503 213.048 111.791 210.44 111.791H206.168L204.728 110.711ZM217.155 107.903V103.007C217.155 100.415 218.451 99.119 221.043 99.119H224.403C226.995 99.119 228.291 100.415 228.291 103.007V107.903C228.291 110.495 226.995 111.791 224.403 111.791H221.043C218.451 111.791 217.155 110.495 217.155 107.903ZM220.467 108.143C220.467 108.655 220.723 108.911 221.235 108.911H224.211C224.723 108.911 224.979 108.655 224.979 108.143V102.767C224.979 102.255 224.723 101.999 224.211 101.999H221.235C220.723 101.999 220.467 102.255 220.467 102.767V108.143ZM231.382 111.791V108.359H234.958V111.791H231.382Z" fill="black"/>
</svg>
