<svg width="386" height="200" viewBox="0 0 386 200" fill="none" xmlns="http://www.w3.org/2000/svg">
<path d="M45.4118 11.7656C20.3308 11.7656 0 22.3537 0 35.2949V70.5888V94.1181V129.412C0 142.353 20.3315 152.941 45.4118 152.941V200L156.103 152.941H204.353H340.588C365.678 152.941 386 142.353 386 129.412V94.1181V70.5888V35.2949C386 22.3537 365.678 11.7656 340.588 11.7656H204.353H181.647H45.4118Z" fill="#BDC3C7"/>
<path d="M45.4118 0C20.3308 0 0 10.5882 0 23.5293V58.8233V82.3526V117.647C0 130.588 20.3315 141.176 45.4118 141.176V188.234L156.103 141.176H204.353H340.588C365.678 141.176 386 130.588 386 117.647V82.3526V58.8233V23.5293C386 10.5882 365.678 0 340.588 0H204.353H181.647H45.4118Z" fill="#ECF0F1"/>
<path d="M42.2154 35.879L42.6474 35.231H45.6954L49.4634 48.671H49.8474L53.6394 35.231H56.6634L57.0954 35.879L52.3914 51.791H46.9194L42.2154 35.879ZM58.3428 47.903V43.007C58.3428 40.415 59.6388 39.119 62.2308 39.119H65.5908C68.1828 39.119 69.4788 40.415 69.4788 43.007V47.903C69.4788 50.495 68.1828 51.791 65.5908 51.791H62.2308C59.6388 51.791 58.3428 50.495 58.3428 47.903ZM61.6548 48.143C61.6548 48.655 61.9108 48.911 62.4228 48.911H65.3988C65.9108 48.911 66.1668 48.655 66.1668 48.143V42.767C66.1668 42.255 65.9108 41.999 65.3988 41.999H62.4228C61.9108 41.999 61.6548 42.255 61.6548 42.767V48.143ZM72.5459 47.903V43.007C72.5459 40.415 73.8419 39.119 76.4339 39.119H80.8979L82.3379 40.199V41.999H76.6259C76.1139 41.999 75.8579 42.255 75.8579 42.767V48.143C75.8579 48.655 76.1139 48.911 76.6259 48.911H82.3379V50.711L80.8979 51.791H76.4339C73.8419 51.791 72.5459 50.495 72.5459 47.903ZM84.9678 47.903V43.007C84.9678 40.415 86.2638 39.119 88.8558 39.119H91.9758C94.5678 39.119 95.8638 40.415 95.8638 43.007V46.679H88.2798V48.143C88.2798 48.655 88.5358 48.911 89.0478 48.911H95.3838V50.711L93.9438 51.791H88.8558C86.2638 51.791 84.9678 50.495 84.9678 47.903ZM88.2798 44.135H92.5518V42.767C92.5518 42.255 92.2958 41.999 91.7838 41.999H89.0478C88.5358 41.999 88.2798 42.255 88.2798 42.767V44.135ZM86.6478 36.383L90.4158 32.687L94.1838 36.383L92.7678 37.871L90.4158 35.639L88.0638 37.871L86.6478 36.383ZM104.702 47.903V43.007C104.702 40.415 105.998 39.119 108.59 39.119H113.054L114.494 40.199V41.999H108.782C108.27 41.999 108.014 42.255 108.014 42.767V48.143C108.014 48.655 108.27 48.911 108.782 48.911H114.494V50.711L113.054 51.791H108.59C105.998 51.791 104.702 50.495 104.702 47.903ZM117.316 51.791V34.031H120.628V39.119H124.324C126.916 39.119 128.212 40.415 128.212 43.007V51.791H124.9V42.767C124.9 42.255 124.644 41.999 124.132 41.999H120.628V51.791H117.316ZM131.374 47.903V43.007C131.374 40.415 132.67 39.119 135.262 39.119H138.382C140.974 39.119 142.27 40.415 142.27 43.007V46.679H134.686V48.143C134.686 48.655 134.942 48.911 135.454 48.911H141.79V50.711L140.35 51.791H135.262C132.67 51.791 131.374 50.495 131.374 47.903ZM134.686 44.135H138.958V42.767C138.958 42.255 138.702 41.999 138.19 41.999H135.454C134.942 41.999 134.686 42.255 134.686 42.767V44.135ZM145.247 47.903V43.007C145.247 40.415 146.543 39.119 149.135 39.119H156.143V52.703C156.143 55.295 154.847 56.591 152.255 56.591H147.767L146.327 55.511V53.711H152.063C152.575 53.711 152.831 53.455 152.831 52.943V51.791H149.135C146.543 51.791 145.247 50.495 145.247 47.903ZM148.559 48.143C148.559 48.655 148.815 48.911 149.327 48.911H152.831V41.999H149.327C148.815 41.999 148.559 42.255 148.559 42.767V48.143ZM159.312 47.903V43.007C159.312 40.415 160.608 39.119 163.2 39.119H166.56C169.152 39.119 170.448 40.415 170.448 43.007V47.903C170.448 50.495 169.152 51.791 166.56 51.791H163.2C160.608 51.791 159.312 50.495 159.312 47.903ZM162.624 48.143C162.624 48.655 162.88 48.911 163.392 48.911H166.368C166.88 48.911 167.136 48.655 167.136 48.143V42.767C167.136 42.255 166.88 41.999 166.368 41.999H163.392C162.88 41.999 162.624 42.255 162.624 42.767V48.143ZM173.611 47.903V39.119H176.923V48.143C176.923 48.655 177.179 48.911 177.691 48.911H181.195V39.119H184.507V51.791H177.499C174.907 51.791 173.611 50.495 173.611 47.903ZM196.938 51.791C194.346 51.791 193.05 50.519 193.05 47.975C193.05 45.431 194.346 44.159 196.938 44.159H200.25V42.767C200.25 42.255 199.994 41.999 199.482 41.999H194.394V40.199L195.834 39.119H199.674C202.266 39.119 203.562 40.415 203.562 43.007V51.791H196.938ZM196.362 48.143C196.362 48.655 196.618 48.911 197.13 48.911H200.25V46.703H197.13C196.618 46.703 196.362 46.959 196.362 47.471V48.143ZM206.822 47.903V35.231H210.134V39.119H214.262V41.999H210.134V48.143C210.134 48.655 210.39 48.911 210.902 48.911H214.502V50.711L213.062 51.791H210.71C208.118 51.791 206.822 50.495 206.822 47.903ZM216.897 47.903V43.007C216.897 40.415 218.193 39.119 220.785 39.119H223.905C226.497 39.119 227.793 40.415 227.793 43.007V46.679H220.209V48.143C220.209 48.655 220.465 48.911 220.977 48.911H227.313V50.711L225.873 51.791H220.785C218.193 51.791 216.897 50.495 216.897 47.903ZM220.209 44.135H224.481V42.767C224.481 42.255 224.225 41.999 223.713 41.999H220.977C220.465 41.999 220.209 42.255 220.209 42.767V44.135ZM220.305 36.455L223.617 32.687L225.417 34.391L221.865 37.967L220.305 36.455ZM240.04 51.791C237.448 51.791 236.152 50.519 236.152 47.975C236.152 45.431 237.448 44.159 240.04 44.159H243.352V42.767C243.352 42.255 243.096 41.999 242.584 41.999H237.496V40.199L238.936 39.119H242.776C245.368 39.119 246.664 40.415 246.664 43.007V51.791H240.04ZM239.464 48.143C239.464 48.655 239.72 48.911 240.232 48.911H243.352V46.703H240.232C239.72 46.703 239.464 46.959 239.464 47.471V48.143ZM249.827 47.903V43.007C249.827 40.415 251.123 39.119 253.715 39.119H260.723V56.591H257.411V51.791H253.715C251.123 51.791 249.827 50.495 249.827 47.903ZM253.139 48.143C253.139 48.655 253.395 48.911 253.907 48.911H257.411V41.999H253.907C253.395 41.999 253.139 42.255 253.139 42.767V48.143ZM264.079 47.903V39.119H267.391V48.143C267.391 48.655 267.647 48.911 268.159 48.911H271.663V39.119H274.975V51.791H267.967C265.375 51.791 264.079 50.495 264.079 47.903ZM278.353 37.031V33.791H281.809V37.031H278.353ZM278.425 51.791V39.119H281.737V51.791H278.425ZM283.999 54.767L285.415 48.359H288.559L288.919 48.863L286.471 55.391L283.999 54.767ZM297.644 51.791V39.119H312.092C314.684 39.119 315.98 40.415 315.98 43.007V51.791H312.668V42.767C312.668 42.255 312.412 41.999 311.9 41.999H308.468V51.791H305.156V41.999H300.956V51.791H297.644ZM322.563 51.791C319.971 51.791 318.675 50.519 318.675 47.975C318.675 45.431 319.971 44.159 322.563 44.159H325.875V42.767C325.875 42.255 325.619 41.999 325.107 41.999H320.019V40.199L321.459 39.119H325.299C327.891 39.119 329.187 40.415 329.187 43.007V51.791H322.563ZM321.987 48.143C321.987 48.655 322.243 48.911 322.755 48.911H325.875V46.703H322.755C322.243 46.703 321.987 46.959 321.987 47.471V48.143ZM332.111 50.711V48.911H337.631C338.175 48.911 338.447 48.607 338.447 47.999C338.447 47.375 338.223 47.023 337.775 46.943L335.183 46.511C333.135 46.159 332.111 44.975 332.111 42.959C332.111 40.399 333.407 39.119 335.999 39.119H339.719L341.159 40.199V41.999H336.191C335.647 41.999 335.375 42.303 335.375 42.911C335.375 43.551 335.623 43.911 336.119 43.991L338.687 44.423C340.719 44.759 341.735 45.927 341.735 47.927C341.735 50.503 340.431 51.791 337.823 51.791H333.551L332.111 50.711ZM60.4801 81.791V69.119H67.4881C70.0801 69.119 71.3761 70.415 71.3761 73.007V81.791H68.0641V72.767C68.0641 72.255 67.8081 71.999 67.2961 71.999H63.7921V81.791H60.4801ZM77.9461 81.791C75.3541 81.791 74.0581 80.519 74.0581 77.975C74.0581 75.431 75.3541 74.159 77.9461 74.159H81.2581V72.767C81.2581 72.255 81.0021 71.999 80.4901 71.999H75.4021V70.199L76.8421 69.119H80.6821C83.2741 69.119 84.5701 70.415 84.5701 73.007V81.791H77.9461ZM77.3701 78.143C77.3701 78.655 77.6261 78.911 78.1381 78.911H81.2581V76.703H78.1381C77.6261 76.703 77.3701 76.959 77.3701 77.471V78.143ZM75.3781 66.143L76.9621 64.559C77.3141 64.207 77.7701 64.031 78.3301 64.031C78.8901 64.031 79.3461 64.207 79.6981 64.559L80.7061 65.567C80.7861 65.647 80.8581 65.687 80.9221 65.687C80.9861 65.687 81.0581 65.647 81.1381 65.567L82.4581 64.247L83.8741 65.663L82.2901 67.247C81.9381 67.599 81.4821 67.775 80.9221 67.775C80.3621 67.775 79.9061 67.599 79.5541 67.247L78.5461 66.239C78.4661 66.159 78.3941 66.119 78.3301 66.119C78.2661 66.119 78.1941 66.159 78.1141 66.239L76.7941 67.559L75.3781 66.143ZM87.7334 77.903V73.007C87.7334 70.415 89.0294 69.119 91.6214 69.119H94.9814C97.5734 69.119 98.8694 70.415 98.8694 73.007V77.903C98.8694 80.495 97.5734 81.791 94.9814 81.791H91.6214C89.0294 81.791 87.7334 80.495 87.7334 77.903ZM91.0454 78.143C91.0454 78.655 91.3014 78.911 91.8134 78.911H94.7894C95.3014 78.911 95.5574 78.655 95.5574 78.143V72.767C95.5574 72.255 95.3014 71.999 94.7894 71.999H91.8134C91.3014 71.999 91.0454 72.255 91.0454 72.767V78.143ZM107.894 86.591V69.119H114.902C117.494 69.119 118.79 70.415 118.79 73.007V77.903C118.79 80.495 117.494 81.791 114.902 81.791H111.206V86.591H107.894ZM111.206 78.911H114.71C115.222 78.911 115.478 78.655 115.478 78.143V72.767C115.478 72.255 115.222 71.999 114.71 71.999H111.206V78.911ZM125.266 81.791C122.674 81.791 121.378 80.519 121.378 77.975C121.378 75.431 122.674 74.159 125.266 74.159H128.578V72.767C128.578 72.255 128.322 71.999 127.81 71.999H122.722V70.199L124.162 69.119H128.002C130.594 69.119 131.89 70.415 131.89 73.007V81.791H125.266ZM124.69 78.143C124.69 78.655 124.946 78.911 125.458 78.911H128.578V76.703H125.458C124.946 76.703 124.69 76.959 124.69 77.471V78.143ZM134.814 80.711V78.911H140.334C140.878 78.911 141.15 78.607 141.15 77.999C141.15 77.375 140.926 77.023 140.478 76.943L137.886 76.511C135.838 76.159 134.814 74.975 134.814 72.959C134.814 70.399 136.11 69.119 138.702 69.119H142.422L143.862 70.199V71.999H138.894C138.35 71.999 138.078 72.303 138.078 72.911C138.078 73.551 138.326 73.911 138.822 73.991L141.39 74.423C143.422 74.759 144.438 75.927 144.438 77.927C144.438 80.503 143.134 81.791 140.526 81.791H136.254L134.814 80.711ZM147.001 80.711V78.911H152.521C153.065 78.911 153.337 78.607 153.337 77.999C153.337 77.375 153.113 77.023 152.665 76.943L150.073 76.511C148.025 76.159 147.001 74.975 147.001 72.959C147.001 70.399 148.297 69.119 150.889 69.119H154.609L156.049 70.199V71.999H151.081C150.537 71.999 150.265 72.303 150.265 72.911C150.265 73.551 150.513 73.911 151.009 73.991L153.577 74.423C155.609 74.759 156.625 75.927 156.625 77.927C156.625 80.503 155.321 81.791 152.713 81.791H148.441L147.001 80.711ZM162.837 81.791C160.245 81.791 158.949 80.519 158.949 77.975C158.949 75.431 160.245 74.159 162.837 74.159H166.149V72.767C166.149 72.255 165.893 71.999 165.381 71.999H160.293V70.199L161.733 69.119H165.573C168.165 69.119 169.461 70.415 169.461 73.007V81.791H162.837ZM162.261 78.143C162.261 78.655 162.517 78.911 163.029 78.911H166.149V76.703H163.029C162.517 76.703 162.261 76.959 162.261 77.471V78.143ZM172.72 81.791V70.751C173.312 69.663 174.448 69.119 176.128 69.119H178.72L180.16 70.199V71.999H177.016C176.536 71.999 176.208 72.119 176.032 72.359V81.791H172.72ZM185.501 81.791C182.909 81.791 181.613 80.519 181.613 77.975C181.613 75.431 182.909 74.159 185.501 74.159H188.813V72.767C188.813 72.255 188.557 71.999 188.045 71.999H182.957V70.199L184.397 69.119H188.237C190.829 69.119 192.125 70.415 192.125 73.007V81.791H185.501ZM184.925 78.143C184.925 78.655 185.181 78.911 185.693 78.911H188.813V76.703H185.693C185.181 76.703 184.925 76.959 184.925 77.471V78.143ZM185.141 66.455L188.453 62.687L190.253 64.391L186.701 67.967L185.141 66.455ZM204.462 81.791C201.87 81.791 200.574 80.519 200.574 77.975C200.574 75.431 201.87 74.159 204.462 74.159H207.774V72.767C207.774 72.255 207.518 71.999 207.006 71.999H201.918V70.199L203.358 69.119H207.198C209.79 69.119 211.086 70.415 211.086 73.007V81.791H204.462ZM203.886 78.143C203.886 78.655 204.142 78.911 204.654 78.911H207.774V76.703H204.654C204.142 76.703 203.886 76.959 203.886 77.471V78.143ZM214.345 77.183V64.031H217.657V77.519C217.657 78.511 218.169 79.063 219.193 79.175V82.031C215.961 82.031 214.345 80.415 214.345 77.183ZM221.679 77.903V73.007C221.679 70.415 222.975 69.119 225.567 69.119H228.687C231.279 69.119 232.575 70.415 232.575 73.007V76.679H224.991V78.143C224.991 78.655 225.247 78.911 225.759 78.911H232.095V80.711L230.655 81.791H225.567C222.975 81.791 221.679 80.495 221.679 77.903ZM224.991 74.135H229.263V72.767C229.263 72.255 229.007 71.999 228.495 71.999H225.759C225.247 71.999 224.991 72.255 224.991 72.767V74.135ZM225.087 66.455L228.399 62.687L230.199 64.391L226.647 67.967L225.087 66.455ZM235.839 81.791V69.119H250.287C252.879 69.119 254.175 70.415 254.175 73.007V81.791H250.863V72.767C250.863 72.255 250.607 71.999 250.095 71.999H246.663V81.791H243.351V71.999H239.151V81.791H235.839ZM263.116 77.903V73.007C263.116 70.415 264.412 69.119 267.004 69.119H270.7V64.031H274.012V81.791H267.004C264.412 81.791 263.116 80.495 263.116 77.903ZM266.428 78.143C266.428 78.655 266.684 78.911 267.196 78.911H270.7V71.999H267.196C266.684 71.999 266.428 72.255 266.428 72.767V78.143ZM277.272 77.903V73.007C277.272 70.415 278.568 69.119 281.16 69.119H284.28C286.872 69.119 288.168 70.415 288.168 73.007V76.679H280.584V78.143C280.584 78.655 280.84 78.911 281.352 78.911H287.688V80.711L286.248 81.791H281.16C278.568 81.791 277.272 80.495 277.272 77.903ZM280.584 74.135H284.856V72.767C284.856 72.255 284.6 71.999 284.088 71.999H281.352C280.84 71.999 280.584 72.255 280.584 72.767V74.135ZM291.001 80.711V78.911H296.521C297.065 78.911 297.337 78.607 297.337 77.999C297.337 77.375 297.113 77.023 296.665 76.943L294.073 76.511C292.025 76.159 291.001 74.975 291.001 72.959C291.001 70.399 292.297 69.119 294.889 69.119H298.609L300.049 70.199V71.999H295.081C294.537 71.999 294.265 72.303 294.265 72.911C294.265 73.551 294.513 73.911 295.009 73.991L297.577 74.423C299.609 74.759 300.625 75.927 300.625 77.927C300.625 80.503 299.321 81.791 296.713 81.791H292.441L291.001 80.711ZM303.525 77.903V65.231H306.837V69.119H310.965V71.999H306.837V78.143C306.837 78.655 307.093 78.911 307.605 78.911H311.205V80.711L309.765 81.791H307.413C304.821 81.791 303.525 80.495 303.525 77.903ZM313.601 77.903V73.007C313.601 70.415 314.897 69.119 317.489 69.119H320.609C323.201 69.119 324.497 70.415 324.497 73.007V76.679H316.913V78.143C316.913 78.655 317.169 78.911 317.681 78.911H324.017V80.711L322.577 81.791H317.489C314.897 81.791 313.601 80.495 313.601 77.903ZM316.913 74.135H321.185V72.767C321.185 72.255 320.929 71.999 320.417 71.999H317.681C317.169 71.999 316.913 72.255 316.913 72.767V74.135ZM157.289 116.591V99.119H164.297C166.889 99.119 168.185 100.415 168.185 103.007V107.903C168.185 110.495 166.889 111.791 164.297 111.791H160.601V116.591H157.289ZM160.601 108.911H164.105C164.617 108.911 164.873 108.655 164.873 108.143V102.767C164.873 102.255 164.617 101.999 164.105 101.999H160.601V108.911ZM171.253 107.903V103.007C171.253 100.415 172.549 99.119 175.141 99.119H178.501C181.093 99.119 182.389 100.415 182.389 103.007V107.903C182.389 110.495 181.093 111.791 178.501 111.791H175.141C172.549 111.791 171.253 110.495 171.253 107.903ZM174.565 108.143C174.565 108.655 174.821 108.911 175.333 108.911H178.309C178.821 108.911 179.077 108.655 179.077 108.143V102.767C179.077 102.255 178.821 101.999 178.309 101.999H175.333C174.821 101.999 174.565 102.255 174.565 102.767V108.143ZM185.648 111.791V99.119H192.656C195.248 99.119 196.544 100.415 196.544 103.007V111.791H193.232V102.767C193.232 102.255 192.976 101.999 192.464 101.999H188.96V111.791H185.648ZM199.802 107.903V95.231H203.114V99.119H207.242V101.999H203.114V108.143C203.114 108.655 203.37 108.911 203.882 108.911H207.482V110.711L206.042 111.791H203.69C201.098 111.791 199.802 110.495 199.802 107.903ZM209.878 107.903V103.007C209.878 100.415 211.174 99.119 213.766 99.119H217.126C219.718 99.119 221.014 100.415 221.014 103.007V107.903C221.014 110.495 219.718 111.791 217.126 111.791H213.766C211.174 111.791 209.878 110.495 209.878 107.903ZM213.19 108.143C213.19 108.655 213.446 108.911 213.958 108.911H216.934C217.446 108.911 217.702 108.655 217.702 108.143V102.767C217.702 102.255 217.446 101.999 216.934 101.999H213.958C213.446 101.999 213.19 102.255 213.19 102.767V108.143ZM224.105 111.791V108.359H227.681V111.791H224.105ZM224.153 106.463V95.231H227.609V106.463H224.153Z" fill="black"/>
</svg>
